<svg width="1033" height="440" viewBox="0 0 1033 440" fill="none" xmlns="http://www.w3.org/2000/svg">
<path d="M89.5679 12.9414C123.559 12.9414 157.55 12.9414 192.571 12.9414C187.533 53.3996 187.533 53.3996 183.737 70.1167C182.943 73.6515 182.149 77.1864 181.331 80.8283C180.514 84.3863 179.697 87.9443 178.856 91.6101C178.022 95.3072 177.187 99.0043 176.328 102.813C174.294 111.819 172.239 120.821 170.179 129.821C174.982 126.946 179.785 124.072 184.734 121.111C211.776 105.648 238.806 103.186 269.386 109.258C297.338 118.036 312.417 135.357 327.08 160.129C346.465 202.304 338.557 253.661 323.879 295.956C304.496 340.796 276.872 366.89 233.436 387.742C195.577 395.342 163.302 392.777 129.873 372.57C126.918 369.603 123.962 366.636 120.917 363.579C120.259 366.807 119.6 370.035 118.922 373.36C108.26 392.802 91.4287 399.4 72.2141 409.376C66.7327 412.327 66.7327 412.327 61.1406 415.337C51.2487 420.642 41.3247 425.866 31.3488 431.01C28.2768 432.698 25.2049 434.386 22.0399 436.125C13.4352 440 13.4352 440 0 440C2.84628 409.737 7.95013 380.647 14.4323 350.971C15.4237 346.359 16.4151 341.748 17.4365 336.996C20.6533 322.065 23.9006 307.14 27.1503 292.215C29.3745 281.932 31.5981 271.649 33.8208 261.366C51.7939 178.416 70.4158 95.624 89.5679 12.9414ZM152.265 210.737C139.501 233.515 131.092 260.797 134.352 287.158C146.517 299.505 151.889 300.608 169.619 302.33C187.453 301.563 199.978 297.303 214.963 287.158C227.099 271.616 232.074 257.436 232.876 237.709C227.695 223.474 223.564 213.988 211.604 204.556C191.678 199 168.901 197.02 152.265 210.737Z" fill="black"/>
<path d="M604.024 131.926C631.16 154.122 645.68 179.289 650.981 213.982C653.815 261.667 636.762 305.084 606.424 341.299C567 377.952 526.119 394.035 472.611 392.441C436.995 388.498 401.086 379.254 374.897 353.517C347.59 319.071 342.049 280.621 346.365 237.643C358.57 190.127 387.277 150.31 429.315 124.972C484.539 97.7476 551.231 98.7083 604.024 131.926ZM452.294 232.291C447.873 247.844 446.498 262.374 449.492 278.204C457.995 292.385 457.995 292.385 471.911 300.738C489.509 303.265 499.577 302.523 515.627 294.823C530.227 283.817 537.798 277.825 543.651 260.177C545.788 241.061 546.711 225.097 537.206 208.067C502.546 188.524 474.616 202.715 452.294 232.291Z" fill="black"/>
<path d="M1006.06 0C1002.76 25.6302 997.758 50.6985 992.317 75.9552C991.481 79.8774 990.644 83.7996 989.783 87.8407C987.737 97.4276 985.679 107.012 983.619 116.595C999.915 116.595 1016.21 116.595 1033 116.595C1025.99 190.869 1025.99 190.869 1010.55 206.284C1002.24 206.608 993.907 206.66 985.583 206.564C981.04 206.524 976.498 206.484 971.817 206.442C966.548 206.364 966.548 206.364 961.173 206.284C958.77 215.423 956.448 224.583 954.159 233.751C952.856 238.85 951.554 243.949 950.213 249.202C947.658 264.873 948.663 276.116 952.194 291.488C962.565 294.448 972.935 297.408 983.619 300.457C983.619 327.095 983.619 353.733 983.619 381.177C952.421 396.76 913.399 394.681 880.087 384.821C862.576 377.765 851.155 369.853 839.964 354.271C826.634 320.946 833.564 291.407 841.648 257.575C842.759 252.624 843.87 247.673 845.015 242.571C847.745 230.456 850.552 218.364 853.432 206.284C840.099 204.804 826.766 203.324 813.029 201.8C815.909 188.435 818.811 175.076 821.727 161.72C822.546 157.908 823.365 154.095 824.208 150.167C825.004 146.54 825.8 142.913 826.62 139.175C827.348 135.817 828.077 132.459 828.828 128.999C830.986 121.08 830.986 121.08 835.475 116.595C843.044 116.272 850.626 116.219 858.202 116.315C862.328 116.356 866.454 116.396 870.705 116.438C873.894 116.49 877.082 116.542 880.367 116.595C880.587 114.046 880.807 111.497 881.034 108.87C881.369 105.408 881.705 101.945 882.051 98.3774C882.363 94.9956 882.676 91.6139 882.998 88.1297C885.419 72.6384 887.955 59.4787 893.835 44.8444C904.225 37.489 912.141 32.8808 923.576 28.0277C926.405 26.7296 929.233 25.4315 932.148 24.094C940.268 20.4161 948.475 16.9293 956.684 13.4533C960.532 11.8174 964.38 10.1814 968.345 8.49591C981.513 3.25896 991.793 0 1006.06 0Z" fill="black"/>
<path d="M727.358 12.9414C761.323 12.9414 795.287 12.9414 830.281 12.9414C824.671 51.6211 817.809 89.5853 809.183 127.693C808.035 132.837 806.888 137.98 805.706 143.279C802.076 159.534 798.42 175.783 794.761 192.032C791.132 208.234 787.509 224.438 783.887 240.641C781.57 250.998 779.246 261.353 776.915 271.707C769.882 303.004 763.172 334.331 757.065 365.825C754.208 376.167 754.208 376.167 745.258 385.136C735.616 386.154 735.616 386.154 723.827 386.012C719.616 385.983 715.406 385.954 711.067 385.924C706.66 385.849 702.253 385.774 697.712 385.696C691.05 385.636 691.05 385.636 684.253 385.574C673.262 385.468 662.274 385.313 651.285 385.136C653.761 349.36 660.58 315.183 668.451 280.246C669.704 274.586 670.957 268.926 672.248 263.094C675.56 248.134 678.902 233.18 682.252 218.228C685.616 203.188 688.954 188.142 692.293 173.096C696.072 156.069 699.855 139.043 703.658 122.022C711.766 85.7039 719.619 49.3402 727.358 12.9414Z" fill="black"/>
</svg>
