<svg width="512" height="122" viewBox="0 0 512 122" fill="none" xmlns="http://www.w3.org/2000/svg">
<g clip-path="url(#clip0_104_50)">
<path d="M482.091 15.9099C483.401 15.9099 484.421 16.8598 484.421 18.0898V32.0598H509.671C510.981 32.0598 512.001 33.0099 512.001 34.2399V41.4398C512.001 42.5998 510.981 43.6198 509.671 43.6998H484.421V64.9498C484.421 73.8298 487.621 77.3998 496.651 77.3998H508.001C509.311 77.3998 510.331 78.3498 510.331 79.5798V86.7798C510.331 87.9398 509.311 88.9599 508.001 88.9599H494.471C477.871 88.9599 470.161 81.3899 470.161 65.0199V43.6198H455.241C453.931 43.6198 452.911 42.6698 452.911 41.4398V34.2399C452.911 33.0799 453.931 32.0598 455.241 32.0598H470.161V18.0898C470.161 16.9298 471.181 15.9099 472.491 15.9099H482.091ZM435.511 32.0699C436.821 32.0699 437.841 33.0198 437.841 34.2498V77.4099H455.671C456.981 77.4099 458.001 78.3598 458.001 79.5898V86.7898C458.001 87.9498 456.981 88.9698 455.671 88.9698H406.181C404.871 88.9698 403.851 88.0198 403.851 86.7898V79.5898C403.851 78.4298 404.871 77.4099 406.181 77.4099H423.571V43.6398H406.181C404.871 43.6398 403.851 42.6899 403.851 41.4599V34.2598C403.851 33.0998 404.871 32.0798 406.181 32.0798H435.511V32.0699ZM436.091 10.0898C437.331 10.0898 438.351 11.0399 438.421 12.2699V21.5098C438.421 22.6698 437.401 23.6898 436.091 23.6898H422.991C421.681 23.6898 420.661 22.7398 420.661 21.5098V12.2699C420.661 11.1099 421.681 10.0898 422.991 10.0898H436.091ZM392.861 77.4099H378.011V12.2699C378.011 11.0299 376.991 10.0898 375.681 10.0898H346.571C345.261 10.0898 344.241 11.1099 344.241 12.2699V19.4798C344.241 20.7198 345.261 21.6599 346.571 21.6599H363.751V77.4099H344.461C343.151 77.4099 342.131 78.4298 342.131 79.5898V86.7898C342.131 88.0298 343.151 88.9698 344.461 88.9698H392.861C394.171 88.9698 395.191 87.9498 395.191 86.7898V79.5898C395.191 78.3498 394.171 77.4099 392.861 77.4099ZM313.821 30.9698C308.871 30.9698 305.301 32.0598 302.541 34.6798L299.121 37.9599H295.991L294.831 33.7399C294.541 32.7899 293.671 32.0699 292.571 32.0699H286.021C284.711 32.0699 283.691 33.0898 283.691 34.2498V108.78C283.691 110.02 284.711 110.96 286.021 110.96H295.631C296.941 110.96 297.961 109.94 297.961 108.78V92.6198L296.721 83.9599L299.921 83.2298L303.341 86.4998C306.031 88.9698 309.311 90.2099 314.181 90.2099C328.301 90.2099 336.811 80.4598 336.811 60.5898C336.751 40.7298 328.311 30.9698 313.821 30.9698ZM309.091 78.2798C301.881 78.2798 297.881 74.5698 297.881 67.5098V53.5398C297.881 46.4798 301.811 42.7699 309.091 42.7699C317.901 42.7699 321.901 48.2999 321.901 60.4599C321.831 72.7499 317.901 78.2798 309.091 78.2798ZM243.011 30.9698C224.671 30.9698 214.841 40.7199 214.841 60.5199C214.841 80.3899 224.591 90.1398 242.641 90.1398C256.611 90.1398 265.641 84.3199 268.041 74.3499C268.401 72.9699 267.241 71.6599 265.781 71.6599H257.051C256.101 71.6599 255.231 72.2398 254.871 73.1198C253.341 77.4098 248.981 79.4498 243.081 79.4498C233.911 79.4498 229.541 74.4299 228.961 62.7099H268.771C270.961 40.7999 261.861 30.9698 243.011 30.9698ZM229.401 53.8298C230.781 45.2398 235.081 41.2399 242.941 41.2399C251.311 41.2399 255.241 45.6798 255.461 53.8298H229.401ZM186.461 34.6098L183.181 37.8898H179.911L178.891 33.7399C178.671 32.7199 177.731 32.0699 176.631 32.0699H155.671C154.361 32.0699 153.341 33.0898 153.341 34.2498V41.4498C153.341 42.6898 154.361 43.6299 155.671 43.6299H168.041V77.3998H153.631C152.321 77.3998 151.301 78.4198 151.301 79.5798V86.7798C151.301 88.0198 152.321 88.9599 153.631 88.9599H198.971C200.281 88.9599 201.301 87.9398 201.301 86.7798V79.5798C201.301 78.3398 200.281 77.3998 198.971 77.3998H182.301V53.5298C182.301 46.8298 186.231 43.3398 193.941 43.3398H206.461C207.771 43.3398 208.791 42.3199 208.791 41.1599V33.2298C208.791 31.9898 207.771 31.0499 206.461 31.0499H199.041C193.591 30.9699 189.301 31.9898 186.461 34.6098Z" fill="black"/>
<path d="M0 7.57001C0 3.39001 3.39 0 7.57 0H42.88C47.06 0 50.45 3.39001 50.45 7.57001V40.35H7.57C3.39 40.35 0 36.96 0 32.78V7.57001ZM50.44 40.35H93.31C97.49 40.35 100.88 43.74 100.88 47.92V73.14C100.88 77.32 97.49 80.71 93.31 80.71H50.44V40.35ZM0 88.26C0 84.08 3.39 80.69 7.57 80.69H50.44V113.47C50.44 117.65 47.05 121.04 42.87 121.04H7.57C3.39 121.04 0 117.65 0 113.47V88.26Z" fill="#EA580C"/>
</g>
<defs>
<clipPath id="clip0_104_50">
<rect width="512" height="122" fill="white"/>
</clipPath>
</defs>
</svg>
