<svg width="1294" height="647" viewBox="0 0 1294 647" fill="none" xmlns="http://www.w3.org/2000/svg">
<g clip-path="url(#clip0_104_42)">
<path fill-rule="evenodd" clip-rule="evenodd" d="M767.978 121.219H1071.02C1075.8 121.219 1080.5 121.55 1085.09 122.191L768.722 438.563C768.061 433.892 767.719 429.119 767.719 424.266V121.219H646.5V424.266C646.5 547.004 745.998 646.5 868.734 646.5H1171.78V525.281H868.734C863.878 525.281 859.11 524.942 854.439 524.279L1171.01 207.711C1171.68 212.454 1172.04 217.302 1172.04 222.234V525.281H1293.26V222.234C1293.26 99.498 1193.76 0 1071.02 0H767.978V121.219ZM0 80.8125V81.1398L414.184 608.575C463.96 671.964 565.773 636.762 565.773 556.168V80.8125H444.554V450.979L153.87 80.8125H0Z" fill="url(#paint0_linear_104_42)"/>
</g>
<defs>
<linearGradient id="paint0_linear_104_42" x1="0" y1="0" x2="1315.87" y2="104.111" gradientUnits="userSpaceOnUse">
<stop/>
</linearGradient>
<clipPath id="clip0_104_42">
<rect width="1294" height="647" fill="white"/>
</clipPath>
</defs>
</svg>
